<svg xmlns="http://www.w3.org/2000/svg" xmlns:xlink="http://www.w3.org/1999/xlink" width="500" zoomAndPan="magnify" viewBox="0 0 375 374.999991" height="500" preserveAspectRatio="xMidYMid meet" version="1.0"><defs><g/><clipPath id="b6816c03b0"><path d="M 112 241 L 307 241 L 307 241.21875 L 112 241.21875 Z M 250.597656 241.21875 L 307 241.21875 L 307 254.941406 L 250.597656 254.941406 Z M 112 241.21875 L 114.933594 241.21875 L 114.933594 254.941406 L 112 254.941406 Z M 112 254.941406 L 307 254.941406 L 307 255 L 112 255 Z M 112 254.941406 " clip-rule="nonzero"/></clipPath></defs><rect x="-37.5" width="450" fill="#ffffff" y="-37.499999" height="449.999989" fill-opacity="1"/><rect x="-37.5" width="450" fill="#222831" y="-37.499999" height="449.999989" fill-opacity="1"/><g fill="#d9d9d9" fill-opacity="1"><g transform="translate(77.311115, 214.405064)"><g><path d="M 63.828125 -25.546875 C 64.515625 -22.703125 65.269531 -20.585938 66.09375 -19.203125 C 66.914062 -17.816406 67.734375 -16.84375 68.546875 -16.28125 C 69.367188 -15.71875 70.101562 -15.238281 70.75 -14.84375 C 71.40625 -14.457031 71.90625 -13.75 72.25 -12.71875 C 72.851562 -10.894531 72.398438 -9.484375 70.890625 -8.484375 C 69.378906 -7.492188 67.5 -6.78125 65.25 -6.34375 C 63 -5.914062 61.007812 -5.703125 59.28125 -5.703125 C 57.976562 -5.703125 56.421875 -5.832031 54.609375 -6.09375 C 52.796875 -6.351562 50.9375 -6.875 49.03125 -7.65625 C 47.132812 -8.4375 45.472656 -9.625 44.046875 -11.21875 C 42.617188 -12.820312 41.644531 -14.960938 41.125 -17.640625 C 41.03125 -18.328125 40.8125 -19.445312 40.46875 -21 C 40.125 -22.5625 39.800781 -24.207031 39.5 -25.9375 C 39.195312 -27.664062 38.914062 -29.15625 38.65625 -30.40625 C 38.394531 -31.664062 38.265625 -32.296875 38.265625 -32.296875 C 37.578125 -35.753906 36.691406 -38.128906 35.609375 -39.421875 C 34.523438 -40.722656 33.398438 -41.265625 32.234375 -41.046875 C 31.066406 -40.835938 29.960938 -40.148438 28.921875 -38.984375 C 27.890625 -37.816406 27.046875 -36.429688 26.390625 -34.828125 C 25.742188 -33.234375 25.460938 -31.742188 25.546875 -30.359375 C 25.722656 -27.671875 26.023438 -25.289062 26.453125 -23.21875 C 26.890625 -21.144531 27.5 -19.628906 28.28125 -18.671875 C 29.0625 -17.804688 29.796875 -16.722656 30.484375 -15.421875 C 31.171875 -14.128906 31.515625 -12.878906 31.515625 -11.671875 C 31.515625 -10.023438 30.800781 -8.769531 29.375 -7.90625 C 27.945312 -7.039062 26.085938 -6.457031 23.796875 -6.15625 C 21.503906 -5.851562 19.019531 -5.703125 16.34375 -5.703125 L 15.171875 -5.703125 C 12.578125 -5.703125 10.113281 -5.851562 7.78125 -6.15625 C 5.445312 -6.457031 3.566406 -7.039062 2.140625 -7.90625 C 0.710938 -8.769531 0 -10.023438 0 -11.671875 C 0 -12.878906 0.34375 -14.128906 1.03125 -15.421875 C 1.726562 -16.722656 2.421875 -17.804688 3.109375 -18.671875 C 4.066406 -19.796875 4.757812 -21.695312 5.1875 -24.375 C 5.625 -27.0625 5.882812 -30.132812 5.96875 -33.59375 C 6.050781 -37.050781 5.960938 -40.488281 5.703125 -43.90625 C 5.441406 -47.320312 5.03125 -50.347656 4.46875 -52.984375 C 3.90625 -55.628906 3.28125 -57.46875 2.59375 -58.5 C 1.988281 -59.28125 1.40625 -60.273438 0.84375 -61.484375 C 0.28125 -62.691406 0 -63.816406 0 -64.859375 C 0 -66.503906 0.710938 -67.757812 2.140625 -68.625 C 3.566406 -69.488281 5.445312 -70.070312 7.78125 -70.375 C 10.113281 -70.675781 12.578125 -70.828125 15.171875 -70.828125 L 16.34375 -70.828125 C 19.019531 -70.828125 21.503906 -70.675781 23.796875 -70.375 C 26.085938 -70.070312 27.945312 -69.488281 29.375 -68.625 C 30.800781 -67.757812 31.515625 -66.503906 31.515625 -64.859375 C 31.515625 -63.816406 31.234375 -62.691406 30.671875 -61.484375 C 30.109375 -60.273438 29.523438 -59.28125 28.921875 -58.5 C 28.316406 -57.632812 27.796875 -56.289062 27.359375 -54.46875 C 26.929688 -52.65625 26.546875 -50.5 26.203125 -48 C 26.023438 -46.4375 26.195312 -45.523438 26.71875 -45.265625 C 27.238281 -45.003906 27.929688 -45.113281 28.796875 -45.59375 C 29.660156 -46.070312 30.484375 -46.570312 31.265625 -47.09375 L 46.046875 -59.546875 C 46.910156 -60.316406 47.320312 -61.046875 47.28125 -61.734375 C 47.238281 -62.429688 47.046875 -63.144531 46.703125 -63.875 C 46.359375 -64.613281 46.117188 -65.328125 45.984375 -66.015625 C 45.859375 -66.710938 46.140625 -67.363281 46.828125 -67.96875 C 48.128906 -69.175781 49.925781 -69.953125 52.21875 -70.296875 C 54.507812 -70.648438 56.863281 -70.828125 59.28125 -70.828125 C 61.53125 -70.828125 63.601562 -70.585938 65.5 -70.109375 C 67.40625 -69.640625 68.75 -69.054688 69.53125 -68.359375 C 70.3125 -67.671875 70.140625 -66.894531 69.015625 -66.03125 C 67.285156 -64.726562 65.425781 -63.726562 63.4375 -63.03125 C 61.445312 -62.34375 59.5 -61.675781 57.59375 -61.03125 C 55.6875 -60.382812 54 -59.457031 52.53125 -58.25 L 46.5625 -53.3125 C 45.957031 -52.707031 45.265625 -52.054688 44.484375 -51.359375 C 43.710938 -50.671875 42.894531 -49.894531 42.03125 -49.03125 C 45.570312 -48.34375 48.832031 -46.785156 51.8125 -44.359375 C 54.800781 -41.941406 57.351562 -39.066406 59.46875 -35.734375 C 61.59375 -32.410156 63.046875 -29.015625 63.828125 -25.546875 Z M 63.828125 -25.546875 "/></g></g></g><g fill="#d9d9d9" fill-opacity="1"><g transform="translate(150.859428, 214.405064)"><g><path d="M 35.28125 -70.828125 C 40.125 -70.828125 44.6875 -69.984375 48.96875 -68.296875 C 53.25 -66.609375 57.007812 -64.269531 60.25 -61.28125 C 63.5 -58.300781 66.03125 -54.84375 67.84375 -50.90625 C 69.65625 -46.976562 70.5625 -42.765625 70.5625 -38.265625 C 70.5625 -32.296875 68.984375 -26.847656 65.828125 -21.921875 C 62.671875 -16.992188 58.410156 -13.054688 53.046875 -10.109375 C 47.691406 -7.171875 41.769531 -5.703125 35.28125 -5.703125 C 28.789062 -5.703125 22.882812 -7.171875 17.5625 -10.109375 C 12.25 -13.054688 7.992188 -16.992188 4.796875 -21.921875 C 1.597656 -26.847656 0 -32.296875 0 -38.265625 C 0 -42.765625 0.90625 -46.976562 2.71875 -50.90625 C 4.539062 -54.84375 7.070312 -58.300781 10.3125 -61.28125 C 13.550781 -64.269531 17.3125 -66.609375 21.59375 -68.296875 C 25.875 -69.984375 30.4375 -70.828125 35.28125 -70.828125 Z M 40.46875 -12.328125 C 42.632812 -12.753906 44.363281 -14.304688 45.65625 -16.984375 C 46.957031 -19.671875 47.738281 -23.085938 48 -27.234375 C 48.257812 -31.390625 47.910156 -35.847656 46.953125 -40.609375 C 46.003906 -45.359375 44.597656 -49.570312 42.734375 -53.25 C 40.878906 -56.925781 38.847656 -59.757812 36.640625 -61.75 C 34.441406 -63.738281 32.257812 -64.515625 30.09375 -64.078125 C 27.9375 -63.648438 26.207031 -62.09375 24.90625 -59.40625 C 23.601562 -56.726562 22.820312 -53.3125 22.5625 -49.15625 C 22.3125 -45.007812 22.660156 -40.554688 23.609375 -35.796875 C 24.554688 -31.128906 25.957031 -26.9375 27.8125 -23.21875 C 29.675781 -19.5 31.734375 -16.644531 33.984375 -14.65625 C 36.234375 -12.664062 38.394531 -11.890625 40.46875 -12.328125 Z M 40.46875 -12.328125 "/></g></g></g><g fill="#d9d9d9" fill-opacity="1"><g transform="translate(222.591735, 214.405064)"><g><path d="M 26.71875 -66.546875 C 26.632812 -65.941406 26.460938 -64.382812 26.203125 -61.875 C 25.941406 -59.363281 25.679688 -56.269531 25.421875 -52.59375 C 25.160156 -48.925781 24.988281 -45.054688 24.90625 -40.984375 C 24.820312 -36.921875 24.84375 -32.988281 24.96875 -29.1875 C 25.101562 -25.382812 25.425781 -22.078125 25.9375 -19.265625 C 26.457031 -16.453125 27.195312 -14.523438 28.15625 -13.484375 C 28.757812 -12.878906 29.363281 -12.382812 29.96875 -12 C 30.570312 -11.613281 30.785156 -11.03125 30.609375 -10.25 C 30.441406 -8.945312 29.425781 -7.972656 27.5625 -7.328125 C 25.707031 -6.679688 23.585938 -6.25 21.203125 -6.03125 C 18.828125 -5.8125 16.773438 -5.703125 15.046875 -5.703125 C 13.398438 -5.703125 11.410156 -5.8125 9.078125 -6.03125 C 6.742188 -6.25 4.691406 -6.679688 2.921875 -7.328125 C 1.148438 -7.972656 0.175781 -8.945312 0 -10.25 C -0.0820312 -11.113281 0.128906 -11.757812 0.640625 -12.1875 C 1.160156 -12.625 1.722656 -13.144531 2.328125 -13.75 C 3.285156 -14.613281 3.957031 -16.191406 4.34375 -18.484375 C 4.726562 -20.773438 4.960938 -23.347656 5.046875 -26.203125 C 5.140625 -29.054688 5.1875 -31.691406 5.1875 -34.109375 C 5.1875 -38.347656 5.140625 -42.066406 5.046875 -45.265625 C 4.960938 -48.472656 4.234375 -50.941406 2.859375 -52.671875 C 2.253906 -53.617188 1.601562 -54.394531 0.90625 -55 C 0.21875 -55.601562 -0.0820312 -56.425781 0 -57.46875 C 0.175781 -58.757812 0.929688 -59.925781 2.265625 -60.96875 C 3.609375 -62.007812 5.164062 -62.960938 6.9375 -63.828125 C 8.707031 -64.691406 10.328125 -65.507812 11.796875 -66.28125 C 12.921875 -66.882812 14.410156 -67.617188 16.265625 -68.484375 C 18.128906 -69.347656 19.945312 -70.019531 21.71875 -70.5 C 23.5 -70.976562 24.90625 -70.957031 25.9375 -70.4375 C 26.976562 -69.914062 27.238281 -68.617188 26.71875 -66.546875 Z M 26.71875 -66.546875 "/></g></g></g><g clip-path="url(#b6816c03b0)"><path fill="#0097b2" d="M 112.757812 241.59375 L 306.035156 241.59375 L 306.035156 254.34375 L 112.757812 254.34375 Z M 112.757812 241.59375 " fill-opacity="1" fill-rule="nonzero"/></g><g fill="#0097b2" fill-opacity="1"><g transform="translate(112.758949, 234.8449)"><g><path d="M 186.796875 -40.21875 L 186.796875 -11.671875 C 186.796875 -8.210938 185.734375 -5.398438 183.609375 -3.234375 C 181.492188 -1.078125 178.664062 0 175.125 0 C 169.15625 0 164.3125 -1.769531 160.59375 -5.3125 C 159.644531 -3.582031 158.28125 -2.265625 156.5 -1.359375 C 154.726562 -0.453125 152.71875 0 150.46875 0 C 144.757812 0 139.914062 -1.125 135.9375 -3.375 C 134.207031 1.289062 131.332031 4.960938 127.3125 7.640625 C 123.289062 10.328125 118.472656 11.671875 112.859375 11.671875 L 24.640625 11.671875 C 19.191406 11.671875 14.800781 10.003906 11.46875 6.671875 C 8.144531 3.347656 6.484375 -1.035156 6.484375 -6.484375 C 6.484375 -11.929688 8.144531 -16.316406 11.46875 -19.640625 C 14.800781 -22.972656 19.191406 -24.640625 24.640625 -24.640625 L 88.203125 -24.640625 C 90.972656 -24.640625 93.179688 -25.484375 94.828125 -27.171875 C 96.472656 -28.859375 97.296875 -31.046875 97.296875 -33.734375 L 99.890625 -33.734375 L 99.890625 -24.640625 C 99.890625 -21.179688 98.828125 -18.367188 96.703125 -16.203125 C 94.585938 -14.046875 91.753906 -12.96875 88.203125 -12.96875 L 20.75 -12.96875 C 18.851562 -12.96875 17.296875 -12.382812 16.078125 -11.21875 C 14.867188 -10.050781 14.265625 -8.472656 14.265625 -6.484375 C 14.265625 -4.578125 14.867188 -3.019531 16.078125 -1.8125 C 17.296875 -0.601562 18.851562 0 20.75 0 L 119.34375 0 C 121.332031 0 122.910156 -0.601562 124.078125 -1.8125 C 125.242188 -3.019531 125.828125 -4.578125 125.828125 -6.484375 L 125.828125 -28.53125 L 137.5 -32.4375 L 137.5 -20.75 C 137.5 -16.863281 138.6875 -13.726562 141.0625 -11.34375 C 143.445312 -8.96875 146.582031 -7.78125 150.46875 -7.78125 L 150.46875 -32.4375 L 162.15625 -36.328125 L 162.15625 -20.75 C 162.15625 -16.863281 163.34375 -13.726562 165.71875 -11.34375 C 168.09375 -8.96875 171.226562 -7.78125 175.125 -7.78125 L 175.125 -36.328125 Z M 164.09375 -61.625 L 156.3125 -53.84375 L 148.53125 -61.625 L 156.3125 -69.40625 Z M 171.21875 -50.59375 L 163.4375 -42.8125 L 156.3125 -49.953125 L 149.171875 -42.8125 L 141.390625 -50.59375 L 149.171875 -58.375 L 156.3125 -51.25 L 163.4375 -58.375 Z M 171.21875 -50.59375 "/></g></g></g></svg>