<svg xmlns="http://www.w3.org/2000/svg" xmlns:xlink="http://www.w3.org/1999/xlink" width="500" zoomAndPan="magnify" viewBox="0 0 375 374.999991" height="500" preserveAspectRatio="xMidYMid meet" version="1.0"><defs><g/><clipPath id="dd4a4814c5"><path d="M 135 238 L 298 238 L 298 238.5 L 135 238.5 Z M 251.707031 238.5 L 298 238.5 L 298 250 L 251.707031 250 Z M 135 238.5 L 135.871094 238.5 L 135.871094 250 L 135 250 Z M 135 238.5 " clip-rule="nonzero"/></clipPath></defs><rect x="-37.5" width="450" fill="#ffffff" y="-37.499999" height="449.999989" fill-opacity="1"/><rect x="-37.5" width="450" fill="#222831" y="-37.499999" height="449.999989" fill-opacity="1"/><g fill="#d9d9d9" fill-opacity="1"><g transform="translate(98.378608, 213.936058)"><g><path d="M 53.5 -21.421875 C 54.070312 -19.023438 54.703125 -17.25 55.390625 -16.09375 C 56.085938 -14.9375 56.78125 -14.117188 57.46875 -13.640625 C 58.15625 -13.171875 58.769531 -12.769531 59.3125 -12.4375 C 59.851562 -12.113281 60.269531 -11.519531 60.5625 -10.65625 C 61.070312 -9.132812 60.691406 -7.957031 59.421875 -7.125 C 58.148438 -6.289062 56.570312 -5.691406 54.6875 -5.328125 C 52.800781 -4.960938 51.132812 -4.78125 49.6875 -4.78125 C 48.601562 -4.78125 47.300781 -4.890625 45.78125 -5.109375 C 44.257812 -5.328125 42.695312 -5.757812 41.09375 -6.40625 C 39.5 -7.0625 38.101562 -8.0625 36.90625 -9.40625 C 35.71875 -10.75 34.90625 -12.539062 34.46875 -14.78125 C 34.394531 -15.363281 34.210938 -16.304688 33.921875 -17.609375 C 33.628906 -18.921875 33.359375 -20.300781 33.109375 -21.75 C 32.859375 -23.195312 32.625 -24.445312 32.40625 -25.5 C 32.1875 -26.550781 32.078125 -27.078125 32.078125 -27.078125 C 31.492188 -29.972656 30.75 -31.960938 29.84375 -33.046875 C 28.9375 -34.140625 27.992188 -34.59375 27.015625 -34.40625 C 26.035156 -34.226562 25.109375 -33.648438 24.234375 -32.671875 C 23.367188 -31.691406 22.664062 -30.53125 22.125 -29.1875 C 21.582031 -27.851562 21.347656 -26.601562 21.421875 -25.4375 C 21.566406 -23.195312 21.816406 -21.207031 22.171875 -19.46875 C 22.535156 -17.726562 23.046875 -16.457031 23.703125 -15.65625 C 24.359375 -14.9375 24.972656 -14.03125 25.546875 -12.9375 C 26.128906 -11.851562 26.421875 -10.800781 26.421875 -9.78125 C 26.421875 -8.40625 25.820312 -7.351562 24.625 -6.625 C 23.425781 -5.90625 21.867188 -5.414062 19.953125 -5.15625 C 18.035156 -4.90625 15.953125 -4.78125 13.703125 -4.78125 L 12.71875 -4.78125 C 10.539062 -4.78125 8.472656 -4.90625 6.515625 -5.15625 C 4.566406 -5.414062 2.992188 -5.90625 1.796875 -6.625 C 0.597656 -7.351562 0 -8.40625 0 -9.78125 C 0 -10.800781 0.285156 -11.851562 0.859375 -12.9375 C 1.441406 -14.03125 2.023438 -14.9375 2.609375 -15.65625 C 3.410156 -16.601562 3.988281 -18.195312 4.34375 -20.4375 C 4.707031 -22.6875 4.925781 -25.257812 5 -28.15625 C 5.070312 -31.0625 5 -33.945312 4.78125 -36.8125 C 4.5625 -39.675781 4.21875 -42.210938 3.75 -44.421875 C 3.28125 -46.628906 2.753906 -48.171875 2.171875 -49.046875 C 1.660156 -49.691406 1.171875 -50.519531 0.703125 -51.53125 C 0.234375 -52.550781 0 -53.492188 0 -54.359375 C 0 -55.742188 0.597656 -56.796875 1.796875 -57.515625 C 2.992188 -58.242188 4.566406 -58.734375 6.515625 -58.984375 C 8.472656 -59.242188 10.539062 -59.375 12.71875 -59.375 L 13.703125 -59.375 C 15.953125 -59.375 18.035156 -59.242188 19.953125 -58.984375 C 21.867188 -58.734375 23.425781 -58.242188 24.625 -57.515625 C 25.820312 -56.796875 26.421875 -55.742188 26.421875 -54.359375 C 26.421875 -53.492188 26.1875 -52.550781 25.71875 -51.53125 C 25.25 -50.519531 24.757812 -49.691406 24.25 -49.046875 C 23.738281 -48.316406 23.300781 -47.191406 22.9375 -45.671875 C 22.582031 -44.148438 22.257812 -42.335938 21.96875 -40.234375 C 21.820312 -38.929688 21.960938 -38.171875 22.390625 -37.953125 C 22.828125 -37.734375 23.40625 -37.820312 24.125 -38.21875 C 24.851562 -38.613281 25.546875 -39.03125 26.203125 -39.46875 L 38.59375 -49.90625 C 39.320312 -50.5625 39.664062 -51.175781 39.625 -51.75 C 39.59375 -52.332031 39.429688 -52.929688 39.140625 -53.546875 C 38.847656 -54.160156 38.648438 -54.757812 38.546875 -55.34375 C 38.441406 -55.925781 38.675781 -56.472656 39.25 -56.984375 C 40.34375 -57.992188 41.847656 -58.644531 43.765625 -58.9375 C 45.679688 -59.226562 47.65625 -59.375 49.6875 -59.375 C 51.570312 -59.375 53.3125 -59.171875 54.90625 -58.765625 C 56.5 -58.367188 57.625 -57.878906 58.28125 -57.296875 C 58.9375 -56.722656 58.789062 -56.070312 57.84375 -55.34375 C 56.394531 -54.257812 54.835938 -53.425781 53.171875 -52.84375 C 51.503906 -52.257812 49.875 -51.695312 48.28125 -51.15625 C 46.6875 -50.613281 45.269531 -49.835938 44.03125 -48.828125 L 39.03125 -44.6875 C 38.53125 -44.175781 37.953125 -43.628906 37.296875 -43.046875 C 36.640625 -42.472656 35.953125 -41.828125 35.234375 -41.109375 C 38.203125 -40.523438 40.9375 -39.21875 43.4375 -37.1875 C 45.9375 -35.15625 48.070312 -32.742188 49.84375 -29.953125 C 51.625 -27.160156 52.84375 -24.316406 53.5 -21.421875 Z M 53.5 -21.421875 "/></g></g></g><g fill="#d9d9d9" fill-opacity="1"><g transform="translate(160.026564, 213.936058)"><g><path d="M 29.578125 -59.375 C 33.640625 -59.375 37.460938 -58.664062 41.046875 -57.25 C 44.628906 -55.832031 47.78125 -53.875 50.5 -51.375 C 53.21875 -48.875 55.335938 -45.972656 56.859375 -42.671875 C 58.390625 -39.378906 59.15625 -35.847656 59.15625 -32.078125 C 59.15625 -27.078125 57.832031 -22.507812 55.1875 -18.375 C 52.539062 -14.238281 48.96875 -10.9375 44.46875 -8.46875 C 39.976562 -6.007812 35.015625 -4.78125 29.578125 -4.78125 C 24.140625 -4.78125 19.191406 -6.007812 14.734375 -8.46875 C 10.273438 -10.9375 6.703125 -14.238281 4.015625 -18.375 C 1.335938 -22.507812 0 -27.078125 0 -32.078125 C 0 -35.847656 0.757812 -39.378906 2.28125 -42.671875 C 3.800781 -45.972656 5.921875 -48.875 8.640625 -51.375 C 11.359375 -53.875 14.507812 -55.832031 18.09375 -57.25 C 21.6875 -58.664062 25.515625 -59.375 29.578125 -59.375 Z M 33.921875 -10.328125 C 35.734375 -10.691406 37.179688 -11.992188 38.265625 -14.234375 C 39.359375 -16.484375 40.015625 -19.347656 40.234375 -22.828125 C 40.453125 -26.304688 40.160156 -30.039062 39.359375 -34.03125 C 38.566406 -38.019531 37.390625 -41.550781 35.828125 -44.625 C 34.265625 -47.707031 32.554688 -50.082031 30.703125 -51.75 C 28.859375 -53.425781 27.03125 -54.082031 25.21875 -53.71875 C 23.414062 -53.351562 21.96875 -52.046875 20.875 -49.796875 C 19.789062 -47.546875 19.140625 -44.679688 18.921875 -41.203125 C 18.703125 -37.722656 18.992188 -33.992188 19.796875 -30.015625 C 20.585938 -26.097656 21.757812 -22.578125 23.3125 -19.453125 C 24.875 -16.335938 26.597656 -13.945312 28.484375 -12.28125 C 30.367188 -10.613281 32.179688 -9.960938 33.921875 -10.328125 Z M 33.921875 -10.328125 "/></g></g></g><g fill="#d9d9d9" fill-opacity="1"><g transform="translate(220.152354, 213.936058)"><g><path d="M 22.40625 -55.78125 C 22.332031 -55.269531 22.1875 -53.960938 21.96875 -51.859375 C 21.75 -49.765625 21.53125 -47.175781 21.3125 -44.09375 C 21.09375 -41.007812 20.945312 -37.765625 20.875 -34.359375 C 20.800781 -30.953125 20.816406 -27.65625 20.921875 -24.46875 C 21.035156 -21.28125 21.3125 -18.503906 21.75 -16.140625 C 22.1875 -13.785156 22.800781 -12.175781 23.59375 -11.3125 C 24.101562 -10.800781 24.609375 -10.378906 25.109375 -10.046875 C 25.617188 -9.722656 25.800781 -9.238281 25.65625 -8.59375 C 25.507812 -7.5 24.65625 -6.679688 23.09375 -6.140625 C 21.539062 -5.597656 19.765625 -5.234375 17.765625 -5.046875 C 15.773438 -4.867188 14.054688 -4.78125 12.609375 -4.78125 C 11.234375 -4.78125 9.566406 -4.867188 7.609375 -5.046875 C 5.648438 -5.234375 3.925781 -5.597656 2.4375 -6.140625 C 0.957031 -6.679688 0.144531 -7.5 0 -8.59375 C -0.0703125 -9.3125 0.109375 -9.851562 0.546875 -10.21875 C 0.984375 -10.582031 1.453125 -11.019531 1.953125 -11.53125 C 2.753906 -12.25 3.316406 -13.566406 3.640625 -15.484375 C 3.960938 -17.410156 4.160156 -19.566406 4.234375 -21.953125 C 4.304688 -24.347656 4.34375 -26.5625 4.34375 -28.59375 C 4.34375 -32.144531 4.304688 -35.257812 4.234375 -37.9375 C 4.160156 -40.625 3.546875 -42.691406 2.390625 -44.140625 C 1.878906 -44.941406 1.332031 -45.59375 0.75 -46.09375 C 0.175781 -46.601562 -0.0703125 -47.296875 0 -48.171875 C 0.144531 -49.253906 0.78125 -50.226562 1.90625 -51.09375 C 3.03125 -51.96875 4.332031 -52.765625 5.8125 -53.484375 C 7.300781 -54.210938 8.660156 -54.90625 9.890625 -55.5625 C 10.835938 -56.070312 12.085938 -56.6875 13.640625 -57.40625 C 15.203125 -58.132812 16.722656 -58.695312 18.203125 -59.09375 C 19.691406 -59.488281 20.867188 -59.46875 21.734375 -59.03125 C 22.609375 -58.601562 22.832031 -57.519531 22.40625 -55.78125 Z M 22.40625 -55.78125 "/></g></g></g><g clip-path="url(#dd4a4814c5)"><path fill="#0097b2" d="M 135.175781 238.875 L 297.1875 238.875 L 297.1875 249.375 L 135.175781 249.375 Z M 135.175781 238.875 " fill-opacity="1" fill-rule="nonzero"/></g><g fill="#0097b2" fill-opacity="1"><g transform="translate(135.174096, 232.875909)"><g><path d="M 156.578125 -33.703125 L 156.578125 -9.78125 C 156.578125 -6.882812 155.6875 -4.53125 153.90625 -2.71875 C 152.132812 -0.90625 149.765625 0 146.796875 0 C 141.785156 0 137.722656 -1.484375 134.609375 -4.453125 C 133.816406 -3.003906 132.675781 -1.898438 131.1875 -1.140625 C 129.695312 -0.378906 128.007812 0 126.125 0 C 121.34375 0 117.285156 -0.941406 113.953125 -2.828125 C 112.503906 1.085938 110.09375 4.164062 106.71875 6.40625 C 103.351562 8.65625 99.3125 9.78125 94.59375 9.78125 L 20.65625 9.78125 C 16.09375 9.78125 12.414062 8.382812 9.625 5.59375 C 6.832031 2.800781 5.4375 -0.875 5.4375 -5.4375 C 5.4375 -10 6.832031 -13.675781 9.625 -16.46875 C 12.414062 -19.257812 16.09375 -20.65625 20.65625 -20.65625 L 73.9375 -20.65625 C 76.257812 -20.65625 78.109375 -21.363281 79.484375 -22.78125 C 80.859375 -24.195312 81.546875 -26.023438 81.546875 -28.265625 L 83.71875 -28.265625 L 83.71875 -20.65625 C 83.71875 -17.757812 82.828125 -15.40625 81.046875 -13.59375 C 79.273438 -11.78125 76.90625 -10.875 73.9375 -10.875 L 17.390625 -10.875 C 15.796875 -10.875 14.488281 -10.382812 13.46875 -9.40625 C 12.457031 -8.425781 11.953125 -7.101562 11.953125 -5.4375 C 11.953125 -3.84375 12.457031 -2.535156 13.46875 -1.515625 C 14.488281 -0.503906 15.796875 0 17.390625 0 L 100.03125 0 C 101.695312 0 103.019531 -0.503906 104 -1.515625 C 104.976562 -2.535156 105.46875 -3.84375 105.46875 -5.4375 L 105.46875 -23.921875 L 115.265625 -27.1875 L 115.265625 -17.390625 C 115.265625 -14.128906 116.257812 -11.503906 118.25 -9.515625 C 120.238281 -7.523438 122.863281 -6.53125 126.125 -6.53125 L 126.125 -27.1875 L 135.921875 -30.453125 L 135.921875 -17.390625 C 135.921875 -14.128906 136.914062 -11.503906 138.90625 -9.515625 C 140.894531 -7.523438 143.523438 -6.53125 146.796875 -6.53125 L 146.796875 -30.453125 Z M 137.546875 -51.640625 L 131.03125 -45.125 L 124.5 -51.640625 L 131.03125 -58.171875 Z M 143.53125 -42.40625 L 137.015625 -35.875 L 131.03125 -41.859375 L 125.046875 -35.875 L 118.53125 -42.40625 L 125.046875 -48.921875 L 131.03125 -42.9375 L 137.015625 -48.921875 Z M 143.53125 -42.40625 "/></g></g></g></svg>